<?xml version="1.0" encoding="UTF-8"?>
<!DOCTYPE svg PUBLIC "-//W3C//DTD SVG 1.1//EN" "http://www.w3.org/Graphics/SVG/1.1/DTD/svg11.dtd">
<!-- Creator: CorelDRAW 2020 (64-Bit) -->
<svg xmlns="http://www.w3.org/2000/svg" xml:space="preserve" width="80mm" height="79.9785mm" version="1.1" style="shape-rendering:geometricPrecision; text-rendering:geometricPrecision; image-rendering:optimizeQuality; fill-rule:evenodd; clip-rule:evenodd"
viewBox="0 0 7956.89 7954.76"
 xmlns:xlink="http://www.w3.org/1999/xlink"
 xmlns:xodm="http://www.corel.com/coreldraw/odm/2003">
 <defs>
  <style type="text/css">
   <![CDATA[
    .fil0 {fill:#006699}
   ]]>
  </style>
 </defs>
 <g id="Layer_x0020_1">
  <metadata id="CorelCorpID_0Corel-Layer"/>
  <path class="fil0" d="M7161.17 0c439.16,0 794.07,356.42 794.07,796.11l1.65 6364.72c0,420.15 -326.65,764.25 -738.92,793.93l-6480.14 0c-412.18,-29.68 -737.83,-373.78 -737.83,-793.93l0.56 -6364.72c0,-439.69 355.44,-796.11 794.6,-796.11l6366.02 0zm-4624.58 4719.21l-849.58 0 0 -2823.22 849.58 0 0 2823.22zm-849.58 0l849.58 0 -849.58 0zm-1075.26 -3919.91l2971.61 0 0 849.58 -2971.61 0 0 -849.58zm1785.72 4958.41l-285.19 0 -218.28 883.09 -255.72 -883.09 -204.52 0 -255.68 883.09 -216.32 -883.09 -285.19 0 373.68 1400.31 228.14 0 257.65 -849.65 257.64 849.65 228.14 0 375.64 -1400.31zm4750.1 1384.67l0 -1400.35 -273.41 0 0 857.5 -554.64 -857.5 -243.86 0 0 1400.35 273.37 0 0 -859.47 554.64 859.47 243.9 0zm-1958.53 0l0 -243.9 -649.01 0 0 -340.25 552.67 0 0 -243.89 -552.67 0 0 -328.39 649.01 0 0 -243.93 -922.42 0 0 1400.35 922.42 0zm-2132.2 0l273.4 0 0 -1400.35 -273.4 0 0 1400.35zm273.4 0l-273.4 0 273.4 0zm2103.22 -2400.63l-44.95 -3.79c-796.46,-83.16 -1412.35,-756.17 -1412.35,-1574.65l0 -2364 861.06 0 -1.4 2343.02c0,342.66 238.28,650.8 558,731.96 14.07,3.37 25.01,5.61 39.37,8.14l0.28 859.32zm257.83 -860.55c12.91,-2.35 22.49,-3.9 35.12,-6.91 319.79,-81.12 558.11,-389.3 558.11,-731.96l-7.34 -2343.02 866.57 0 0 2355.33c0.81,818.52 -620.77,1499.22 -1417.33,1583.36l-34.95 3.61 -0.17 -860.41z"/>
 </g>
</svg>
