<?xml version="1.0" encoding="UTF-8"?>
<!DOCTYPE svg PUBLIC "-//W3C//DTD SVG 1.1//EN" "http://www.w3.org/Graphics/SVG/1.1/DTD/svg11.dtd">
<!-- Creator: CorelDRAW X8 -->
<svg xmlns="http://www.w3.org/2000/svg" xml:space="preserve" width="106.967mm" height="120mm" version="1.1" style="shape-rendering:geometricPrecision; text-rendering:geometricPrecision; image-rendering:optimizeQuality; fill-rule:evenodd; clip-rule:evenodd"
viewBox="0 0 10697 12000"
 xmlns:xlink="http://www.w3.org/1999/xlink">
 <defs>
  <style type="text/css">
   <![CDATA[
    .fil0 {fill:black}
   ]]>
  </style>
 </defs>
 <g id="Layer_x0020_1">
  <metadata id="CorelCorpID_0Corel-Layer"/>
  <path class="fil0" d="M8439 626l948 0 0 448 -948 0 0 -448zm-3027 1173l-127 0 -90 0 -386 0 -4246 0c-95,0 -182,39 -245,102 -62,62 -101,149 -101,244l0 6995c0,296 8,549 93,746 81,188 238,335 541,438 613,208 1240,421 1865,634 667,226 1333,453 1985,674 51,16 99,32 147,48 117,39 234,78 347,95 102,24 204,24 306,0 113,-17 231,-56 348,-95 47,-16 95,-32 147,-48 651,-221 1318,-448 1984,-674 626,-213 1252,-426 1866,-634 302,-103 460,-250 541,-438 85,-197 93,-450 93,-746l0 -6995c0,-95 -39,-182 -102,-244 -63,-63 -149,-102 -245,-102l-4245 0 -387 0 -89 0zm-2680 2172l173 -68c23,80 79,167 170,167 118,0 136,-111 136,-204 0,-88 -56,-187 -128,-187 -94,0 -125,50 -164,113l-162 -48 31 -557c216,0 343,0 560,0l0 172 -386 0 -13 208c216,-134 455,16 455,295 0,238 -119,387 -317,387 -196,0 -292,-94 -355,-278zm273 4058c0,-343 -108,-339 -319,-358 0,-49 0,-164 0,-214 356,0 846,0 1203,0 0,55 0,171 0,224 -170,15 -442,-2 -442,378 0,251 0,501 0,751 0,250 0,303 0,553 0,747 -423,1256 -1215,1044 -231,-62 -424,-128 -584,-200 -394,-175 -548,-239 -548,-898 0,-212 0,-424 0,-636 0,-213 0,-425 0,-637 0,-62 -2,-114 -6,-155 -19,-188 -210,-222 -364,-239 0,-43 0,-141 0,-185 425,0 1025,0 1451,0 0,47 0,139 0,184 -204,35 -376,41 -376,332 0,225 0,451 0,676 0,225 0,450 0,675 0,107 9,207 24,298 16,92 47,173 89,244 118,198 307,299 512,306 176,6 413,-57 502,-225 57,-107 73,-260 73,-464 0,-243 0,-485 0,-727 0,-243 0,-485 0,-727zm-1760 -1759l-662 0 0 748 662 0 0 -748zm8748 0l-663 0 0 748 663 0 0 -748zm-3642 0l-83 0 -590 0 -95 0 -590 0 -95 0 -590 0 -83 0 0 172 0 576 2126 0 0 -576 0 -172zm-5057 249l2883 0 0 -77 -2583 0 -300 0 0 77zm0 125l2883 0 0 -77 -2883 0 0 77zm0 125l2883 0 0 -77 -2883 0 0 77zm2883 172l-2883 0 0 77 2883 0 0 -77zm-2883 -48l2883 0 0 -76 -2883 0 0 76zm5105 -374l2883 0 0 -77 -301 0 -2582 0 0 77zm0 125l2883 0 0 -77 -2883 0 0 77zm0 125l2883 0 0 -77 -2883 0 0 77zm2883 172l-2883 0 0 77 2883 0 0 -77zm-2883 -48l2883 0 0 -76 -2883 0 0 76zm-1823 -3210l-178 0 0 310 178 0 0 -310zm-202 -48l250 0 0 406 -274 0 0 -406 24 0zm1803 48l-178 0 0 310 178 0 0 -310zm-202 -48l250 0 0 406 -274 0 0 -406 24 0zm-198 48l-178 0 0 310 178 0 0 -310zm-202 -48l250 0 0 406 -274 0 0 -406 24 0zm-198 48l-178 0 0 310 178 0 0 -310zm-202 -48l250 0 0 406 -274 0 0 -406 24 0zm-199 48l-178 0 0 310 178 0 0 -310zm-202 -48l251 0 0 406 -275 0 0 -406 24 0zm-198 674l-178 0 0 310 178 0 0 -310zm-202 -49l250 0 0 407 -274 0 0 -407 24 0zm1803 49l-178 0 0 310 178 0 0 -310zm-202 -49l250 0 0 407 -274 0 0 -407 24 0zm-198 49l-178 0 0 310 178 0 0 -310zm-202 -49l250 0 0 407 -274 0 0 -407 24 0zm-198 49l-178 0 0 310 178 0 0 -310zm-202 -49l250 0 0 407 -274 0 0 -407 24 0zm-199 49l-178 0 0 310 178 0 0 -310zm-202 -49l251 0 0 407 -275 0 0 -407 24 0zm-198 671l-178 0 0 310 178 0 0 -310zm-202 -48l250 0 0 406 -274 0 0 -406 24 0zm1803 48l-178 0 0 310 178 0 0 -310zm-202 -48l250 0 0 406 -274 0 0 -406 24 0zm-198 48l-178 0 0 310 178 0 0 -310zm-202 -48l250 0 0 406 -274 0 0 -406 24 0zm-198 48l-178 0 0 310 178 0 0 -310zm-401 0l-178 0 0 310 178 0 0 -310zm-202 -48l251 0 0 406 -275 0 0 -406 24 0zm681 406l-30 0 -274 0 -31 0 0 132 335 0 0 -132zm-359 -48l55 0 0 -358 24 0 250 0 0 358 78 0 0 228 -431 0 0 -228 24 0zm-609 -2345c-36,0 -69,15 -92,39 -24,23 -39,56 -39,92l0 304 262 0 0 -304c0,-36 -14,-69 -38,-93 -24,-23 -57,-38 -93,-38zm0 -48c49,0 94,20 127,52 32,33 52,78 52,127l0 352 -358 0 0 -352c0,-49 20,-94 53,-127 32,-32 77,-52 126,-52zm1601 48c-36,0 -68,15 -92,39 -24,23 -39,56 -39,92l0 304 263 0 0 -304c0,-36 -15,-69 -39,-92 -24,-24 -57,-39 -93,-39zm0 -48c50,0 95,20 127,52 32,33 53,78 53,127l0 352 -359 0 0 -352c0,-49 20,-94 53,-126 32,-33 77,-53 126,-53zm-400 48c-36,0 -69,15 -93,39 -23,23 -38,56 -38,92l0 304 262 0 0 -304c0,-36 -15,-69 -38,-92 -24,-24 -57,-39 -93,-39zm0 -48c49,0 94,20 127,52 32,33 52,78 52,127l0 352 -358 0 0 -352c0,-49 20,-94 52,-126 33,-33 78,-53 127,-53zm-400 48c-36,0 -69,15 -93,39 -24,23 -38,56 -38,92l0 304 262 0 0 -304c0,-36 -15,-69 -39,-92 -23,-24 -56,-39 -92,-39zm0 -48c49,0 94,20 126,52 33,33 53,78 53,127l0 352 -359 0 0 -352c0,-49 21,-94 53,-127 33,-32 77,-52 127,-52zm-401 48c-36,0 -68,15 -92,39 -24,23 -39,56 -39,92l0 304 263 0 0 -304c0,-36 -15,-69 -39,-93 -24,-23 -57,-38 -93,-38zm0 -48c50,0 95,20 127,52 32,33 53,78 53,127l0 352 -359 0 0 -352c0,-49 20,-94 53,-127 32,-32 77,-52 126,-52zm-110 2932c-45,-45 -106,-73 -174,-73 -68,0 -130,28 -174,72 -45,45 -73,107 -73,175l0 268 494 0 0 -268c0,-68 -28,-130 -73,-174zm685 0c-45,-45 -106,-73 -174,-73 -68,0 -130,28 -175,72 -44,45 -72,107 -72,175l0 268 494 0 0 -268c0,-68 -28,-130 -73,-174zm685 0c-45,-45 -106,-73 -174,-73 -68,0 -130,28 -175,72 -44,45 -72,107 -72,175l0 268 494 0 0 -268c0,-68 -28,-130 -73,-174zm-174 -121c81,0 155,33 208,87 53,53 87,127 87,208l0 268 83 0 0 -1616 0 -1897 -2126 0 0 1897 0 1616 83 0 0 -268c0,-81 33,-155 86,-208 54,-54 128,-87 209,-87 81,0 155,33 208,87 54,53 87,127 87,208l0 268 95 0 0 -268c0,-81 33,-155 86,-208 54,-54 128,-87 209,-87 81,0 155,33 208,87 54,53 87,127 87,208l0 268 95 0 0 -268c0,-81 33,-155 86,-208 54,-54 128,-87 209,-87zm-3839 -853l-266 0 0 298 266 0 0 -298zm270 0l-216 0 0 298 216 0 0 -298zm265 0l-217 0 0 298 217 0 0 -298zm264 0l-216 0 0 298 216 0 0 -298zm264 0l-216 0 0 298 216 0 0 -298zm264 0l-216 0 0 298 216 0 0 -298zm265 0l-216 0 0 298 216 0 0 -298zm313 0l-265 0 0 298 265 0 0 -298zm-265 -48l313 0 0 394 -313 0 -48 0 -216 0 -49 0 -216 0 -48 0 -216 0 -48 0 -216 0 -48 0 -217 0 -48 0 -222 0 -42 0 -320 0 0 -394 24 0 296 0 24 0 18 0 222 0 24 0 24 0 217 0 24 0 24 0 216 0 24 0 24 0 216 0 24 0 24 0 216 0 25 0 24 0 216 0 24 0 24 0zm-1734 576l-172 0 0 257 172 0 0 -257zm-196 -48l245 0 0 354 -269 0 0 -354 24 0zm596 48l-172 0 0 257 172 0 0 -257zm-196 -48l244 0 0 354 -268 0 0 -354 24 0zm1795 48l-172 0 0 257 172 0 0 -257zm-196 -48l244 0 0 354 -268 0 0 -354 24 0zm-204 48l-172 0 0 257 172 0 0 -257zm-196 -48l245 0 0 354 -269 0 0 -354 24 0zm-203 48l-173 0 0 257 173 0 0 -257zm-197 -48l245 0 0 354 -269 0 0 -354 24 0zm-203 48l-172 0 0 257 172 0 0 -257zm-196 -48l244 0 0 354 -268 0 0 -354 24 0zm-604 535l-172 0 0 258 172 0 0 -258zm-196 -48l245 0 0 354 -269 0 0 -354 24 0zm596 48l-172 0 0 258 172 0 0 -258zm-196 -48l244 0 0 354 -268 0 0 -354 24 0zm1795 48l-172 0 0 258 172 0 0 -258zm-196 -48l244 0 0 354 -268 0 0 -354 24 0zm-204 48l-172 0 0 258 172 0 0 -258zm-196 -48l245 0 0 354 -269 0 0 -354 24 0zm-203 48l-173 0 0 258 173 0 0 -258zm-197 -48l245 0 0 354 -269 0 0 -354 24 0zm-203 48l-172 0 0 258 172 0 0 -258zm-196 -48l244 0 0 354 -268 0 0 -354 24 0zm-204 621l0 -86 -172 0 0 86 172 0zm1599 0l0 -86 -172 0 0 86 172 0zm-400 0l0 -86 -172 0 0 86 172 0zm-399 0l0 -86 -173 0 0 86 173 0zm-400 0l0 -86 -172 0 0 86 172 0zm-800 0l0 -86 -172 0 0 86 172 0zm-196 -134l245 0 0 134 131 0 0 -134 24 0 244 0 0 134 132 0 0 -134 24 0 244 0 0 134 131 0 0 -134 24 0 245 0 0 134 131 0 0 -134 24 0 245 0 0 134 131 0 0 -134 24 0 244 0 0 134 90 0 0 -124 0 -48 0 -1568 -2535 0 0 1740 178 0 0 -134 24 0zm6863 -1454l-265 0 0 298 265 0 0 -298zm-320 0l-216 0 0 298 216 0 0 -298zm-264 0l-216 0 0 298 216 0 0 -298zm-264 0l-216 0 0 298 216 0 0 -298zm-264 0l-217 0 0 298 217 0 0 -298zm-265 0l-216 0 0 298 216 0 0 -298zm-264 0l-216 0 0 298 216 0 0 -298zm-554 -48l290 0 24 0 24 0 216 0 24 0 24 0 216 0 24 0 24 0 217 0 24 0 24 0 216 0 24 0 24 0 216 0 24 0 24 0 223 0 24 0 18 0 319 0 0 394 -319 0 -42 0 -223 0 -48 0 -216 0 -48 0 -216 0 -48 0 -217 0 -48 0 -216 0 -48 0 -216 0 -48 0 -314 0 0 -394 24 0zm290 48l-266 0 0 298 266 0 0 -298zm1709 480l244 0 0 354 -268 0 0 -354 24 0zm196 48l-172 0 0 257 172 0 0 -257zm-596 -48l245 0 0 354 -269 0 0 -354 24 0zm197 48l-173 0 0 257 173 0 0 -257zm-1796 -48l245 0 0 354 -269 0 0 -354 24 0zm196 48l-172 0 0 257 172 0 0 -257zm204 -48l244 0 0 354 -268 0 0 -354 24 0zm196 48l-172 0 0 257 172 0 0 -257zm204 -48l244 0 0 354 -268 0 0 -354 24 0zm196 48l-172 0 0 257 172 0 0 -257zm203 -48l245 0 0 354 -269 0 0 -354 24 0zm197 48l-172 0 0 257 172 0 0 -257zm603 439l244 0 0 354 -268 0 0 -354 24 0zm196 48l-172 0 0 258 172 0 0 -258zm-596 -48l245 0 0 354 -269 0 0 -354 24 0zm197 48l-173 0 0 258 173 0 0 -258zm-1796 -48l245 0 0 354 -269 0 0 -354 24 0zm196 48l-172 0 0 258 172 0 0 -258zm204 -48l244 0 0 354 -268 0 0 -354 24 0zm196 48l-172 0 0 258 172 0 0 -258zm204 -48l244 0 0 354 -268 0 0 -354 24 0zm196 48l-172 0 0 258 172 0 0 -258zm203 -48l245 0 0 354 -269 0 0 -354 24 0zm197 48l-172 0 0 258 172 0 0 -258zm400 487l-173 0 0 86 173 0 0 -86zm-1600 0l-172 0 0 86 172 0 0 -86zm400 0l-172 0 0 86 172 0 0 -86zm400 0l-172 0 0 86 172 0 0 -86zm400 0l-172 0 0 86 172 0 0 -86zm579 86l0 -134 24 0 244 0 0 134 178 0 0 -1740 -2534 0 0 1568 0 48 0 124 89 0 0 -134 24 0 245 0 0 134 131 0 0 -134 24 0 244 0 0 134 132 0 0 -134 24 0 244 0 0 134 131 0 0 -134 24 0 245 0 0 134 131 0 0 -134 24 0 245 0 0 134 131 0zm220 -86l-172 0 0 86 172 0 0 -86zm-8148 -86l735 0 0 172 300 0 0 -1788 24 0 2559 0 0 -1945 2222 0 0 1945 2582 0 0 1788 301 0 0 -172 24 0 735 0 0 844 -759 0 0 0 -2883 0 0 0 -2222 0 0 0 -2883 0 0 0 -759 0 0 -844 24 0zm7121 4130c194,-68 451,-115 473,-323 5,-47 7,-106 7,-174 0,-358 0,-715 0,-1073 0,-357 0,-742 0,-1100 -66,2 -209,4 -275,5 -97,3 -171,16 -224,39 -51,22 -97,57 -135,105 -38,46 -71,110 -98,189 -27,80 -62,505 -68,597 -111,10 -216,19 -327,28 0,-140 0,-625 0,-766 0,-140 0,-281 0,-422 477,0 1025,0 1502,0 477,0 953,0 1431,0 0,111 0,222 0,333l0 595 -177 0c-68,-215 -217,-483 -288,-577 -22,-29 -46,-53 -70,-71 -24,-19 -50,-35 -79,-46 -27,-11 -61,-19 -102,-24 -42,-6 -96,-7 -162,-6 -59,1 -117,2 -175,3 0,332 0,691 0,1023 0,332 0,549 0,881 0,69 2,123 7,158 35,246 445,181 622,163 0,43 0,176 0,219l-1862 528 0 -284zm-2388 56c0,402 18,452 442,519 0,58 0,126 0,185l-1677 -161c0,-56 0,-147 0,-202 60,-3 173,-12 208,-25 112,-41 135,-75 145,-194 5,-54 8,-122 8,-204 0,-370 0,-740 0,-1110 0,-370 0,-740 0,-1110 0,-370 -20,-393 -351,-447 0,-55 0,-146 0,-202 470,0 1152,0 1623,0 613,0 1223,142 1224,863 1,854 -925,1121 -1622,1055 0,282 0,751 0,1033zm0 -1287c525,11 766,-206 772,-697 8,-615 -231,-625 -772,-623 0,496 0,824 0,1320zm2762 -5157l190 -21c4,39 16,68 36,87 19,19 45,28 76,28 41,0 75,-19 103,-57 28,-37 46,-116 53,-235 -49,58 -110,87 -184,87 -80,0 -150,-32 -208,-95 -59,-63 -88,-145 -88,-245 0,-106 31,-190 93,-255 61,-64 140,-96 235,-96 104,0 189,41 255,122 67,81 100,215 100,402 0,190 -35,327 -104,411 -69,85 -159,127 -269,127 -80,0 -144,-22 -194,-66 -49,-43 -80,-108 -94,-194zm-887 260l-205 0c0,-354 0,-708 0,-1062l205 0c0,354 0,708 0,1062zm115 -260l190 -21c4,39 16,68 36,87 19,19 45,28 76,28 41,0 75,-19 103,-57 28,-37 46,-116 53,-235 -49,58 -110,87 -184,87 -80,0 -150,-32 -208,-95 -59,-63 -88,-145 -88,-245 0,-106 31,-190 93,-255 61,-64 140,-96 235,-96 104,0 189,41 255,122 67,81 100,215 100,402 0,190 -35,327 -104,411 -69,85 -159,127 -269,127 -80,0 -144,-22 -194,-66 -49,-43 -80,-108 -94,-194zm441 -435c0,-64 -14,-114 -43,-149 -29,-36 -63,-53 -101,-53 -36,0 -66,14 -90,43 -24,29 -36,77 -36,142 0,67 13,116 39,148 26,31 59,46 98,46 37,0 69,-15 95,-45 25,-30 38,-74 38,-132zm1331 695l-206 0c0,-354 0,-708 0,-1062l206 0c0,354 0,708 0,1062zm-559 -695c0,-64 -14,-114 -43,-149 -29,-36 -63,-53 -101,-53 -36,0 -66,14 -90,43 -24,29 -36,77 -36,142 0,67 13,116 39,148 26,31 59,46 98,46 37,0 69,-15 95,-45 25,-30 38,-74 38,-132zm-4766 695l-205 0c0,-354 0,-708 0,-1062l205 0c0,354 0,708 0,1062zm-1881 0l-205 0c0,-354 0,-708 0,-1062l205 0c0,354 0,708 0,1062zm107 -260l190 -21c4,39 16,68 36,87 19,19 45,28 76,28 41,0 75,-19 103,-57 28,-37 46,-116 53,-235 -49,58 -110,87 -184,87 -80,0 -150,-32 -208,-95 -58,-63 -88,-145 -88,-245 0,-106 31,-190 93,-255 61,-64 140,-96 235,-96 104,0 189,41 255,122 67,81 100,215 100,402 0,190 -34,327 -103,411 -70,85 -159,127 -270,127 -80,0 -144,-22 -194,-66 -49,-43 -80,-108 -94,-194zm441 -435c0,-64 -14,-114 -43,-149 -29,-36 -63,-53 -101,-53 -36,0 -66,14 -90,43 -24,29 -36,77 -36,142 0,67 13,116 39,148 26,31 59,46 98,46 37,0 69,-15 95,-45 25,-30 38,-74 38,-132zm2383 8355c-50,-16 -99,-33 -144,-47l-4 0c-651,-221 -1317,-448 -1984,-675 -626,-212 -1252,-425 -1866,-633 -369,-126 -565,-314 -670,-557 -101,-235 -111,-512 -111,-832l0 -6995c0,-155 63,-295 165,-398 102,-102 243,-165 398,-165l4722 0 127 0 4721 0c155,0 296,63 398,165 102,103 166,243 166,398l0 6995c0,320 -10,597 -111,832 -105,243 -301,431 -671,557 -613,208 -1240,421 -1865,633 -667,227 -1333,454 -1985,675l-3 0c-45,14 -95,31 -145,47 -169,57 -344,116 -524,116l-89 0c-181,0 -355,-59 -525,-116zm1283 -11258l949 0 0 448 -949 0 0 -448zm-342 -626l342 0 0 325 276 0 0 -325 397 0 0 325 276 0 0 -325 342 0 0 1375 -1633 0 0 -1375zm-2034 626l948 0 0 448 -948 0 0 -448zm-342 -626l342 0 0 325 275 0 0 -325 398 0 0 325 275 0 0 -325 343 0 0 1375 -1633 0 0 -1375zm-2035 626l949 0 0 448 -949 0 0 -448zm-342 -626l342 0 0 325 276 0 0 -325 398 0 0 325 275 0 0 -325 342 0 0 1375 -1633 0 0 -1375zm7129 0l343 0 0 325 275 0 0 -325 398 0 0 325 275 0 0 -325 343 0 0 1375 -1634 0 0 -1375z"/>
 </g>
</svg>
